# xmcd
#
# Track frame offsets: 
#        150
#        18157
#        33820
#        47042
#        64339
#        80462
#        94179
#        109957
#        125140
#        145490
#        162940
#        174770
#        191907
#        211697
#        226075
#        239900
#        256384
#        275985
#        291447
#        308585
#        321127
#        329645
#
# Disc length: 4434 seconds
#
# Revision: 2
# Processed by: cddbd v1.5.1PL0 Copyright (c) Steve Scherf et al.
# Submitted via: ExactAudioCopy v0.95a3
#
DISCID=4c115016
DTITLE=Various Artist - Colour Your Life
DYEAR=2003
DGENRE=New Age
TTITLE0=Karunesh - Windrider
TTITLE1=Aeoliah - Immortal Beauty
TTITLE2=Sherazade - La Dolce Vita
TTITLE3=Llusha - Oasis (Water In The Desert)
TTITLE4=Enam - Arinya
TTITLE5=Catriona - The Royal Taylor
TTITLE6=Chris Michell - Lonely On The Mountain
TTITLE7=Sarva-Antah - Om Ama Rani
TTITLE8=Sangit Om - North (Kan)
TTITLE9=Erik Berglund - Angel Of Hope
TTITLE10=Bhakti Music - Om Sarabee
TTITLE11=Gomer Edwin Evans - Passionate Moments
TTITLE12=Surajit Das - Skhalnan
TTITLE13=Authentic Mantra - Hanuman Mantra
TTITLE14=Abida - Ghoongat Ohle Na Luk Sajna
TTITLE15=Nomad - Danca Derviche
TTITLE16=Keiya - Dream Within Dreams
TTITLE17=Kamal - Oregon Hills
TTITLE18=Michel Pepe - Aube Nouvelle
TTITLE19=James Asher and Arthur Hull - Mothership
TTITLE20=Medwyn Goodall - Golitha Falls
TTITLE21=Our World's Sounds - Cats and Kittens
EXTD=YEAR: 2003
EXTT0=
EXTT1=
EXTT2=
EXTT3=
EXTT4=
EXTT5=
EXTT6=
EXTT7=
EXTT8=
EXTT9=
EXTT10=
EXTT11=
EXTT12=
EXTT13=
EXTT14=
EXTT15=
EXTT16=
EXTT17=
EXTT18=
EXTT19=
EXTT20=
EXTT21=
PLAYORDER=
